<?xml version="1.0" encoding="utf-8"?>
<!-- Generator: Adobe Illustrator 24.0.3, SVG Export Plug-In . SVG Version: 6.00 Build 0)  -->
<svg version="1.1" id="Vrstva_2" xmlns="http://www.w3.org/2000/svg" xmlns:xlink="http://www.w3.org/1999/xlink" x="0px" y="0px"
	 viewBox="0 0 438.5 438.5" style="enable-background:new 0 0 438.5 438.5;" xml:space="preserve">
<style type="text/css">
	.st0{fill:#B0BEC5;}
</style>
<path class="st0" d="M366.8,70.8H78.2c-12.9,0-23.3,9.9-23.3,22.2v274.8c0,12.3,10.4,22.2,23.3,22.2h288.5
	c12.9,0,23.3-9.9,23.3-22.2V93C390.1,80.8,379.6,70.8,366.8,70.8z M155.4,341.6h-50.9V190.7h50.9V341.6z M150.7,160.9
	c-5.3,5.2-12.3,7.8-20.9,7.8h-0.2c-8.4,0-15.2-2.6-20.4-7.8c-5.2-5.2-7.8-11.6-7.8-19.2c0-7.8,2.7-14.3,8-19.4
	c5.4-5.1,12.3-7.7,20.8-7.7c8.5,0,15.3,2.6,20.5,7.7c5.1,5.1,7.8,11.6,7.9,19.4C158.7,149.3,156,155.7,150.7,160.9z M341,341.6
	L341,341.6h-50.9v-80.7c0-22.7-5.9-34.1-22.9-34.1c-6.5,0-14.5,1.8-18.9,5.3c-4.4,3.5-7.7,7.9-9.9,12.9c-1,2.6-1.5,6.7-1.5,12.2
	v84.4H186c0.4-91,0.4-141.3,0-150.9h50.9v18.8c10.7-16.5,25.9-22.3,45.6-22.3c17.6,0,32.5,4.1,43.2,15.5
	c10.7,11.4,15.4,30,15.4,52.3V341.6z"/>
</svg>
