<?xml version="1.0" encoding="utf-8"?>
<!-- Generator: Adobe Illustrator 24.0.3, SVG Export Plug-In . SVG Version: 6.00 Build 0)  -->
<svg version="1.1" id="Layer_1" xmlns="http://www.w3.org/2000/svg" xmlns:xlink="http://www.w3.org/1999/xlink" x="0px" y="0px"
	 viewBox="0 0 26 24" style="enable-background:new 0 0 26 24;" xml:space="preserve">
<style type="text/css">
	.st0{fill-rule:evenodd;clip-rule:evenodd;fill:#B0BEC5;}
</style>
<title>ludmila_svg</title>
<path class="st0" d="M3.3,3.6C5.7,6.5,9.2,8.3,13,8.5c-0.4-2.4,0.9-4.7,3.1-5.6c1.7-0.6,3.6-0.1,4.8,1.2C22,4,23.1,3.6,24,3
	c0.1,0.8-1.8,2.4-2,2.6c1,0,2-0.2,2.8-0.6c-0.6,0.9-1.4,1.7-2.3,2.3c0,0.8,0.2,10-8.8,13.6C9.9,22.5,5.5,22,2,19.6
	c2.4,0.2,4.8-0.5,6.8-2c-2-0.1-3.7-1.4-4.3-3.3c0.7,0.2,1.3,0.2,2,0c-2.2-0.7-3.7-2.7-3.7-4.9C3.5,9.8,4.2,10,5,10.1
	C2.8,8.6,2.2,5.8,3.3,3.6z"/>
</svg>
