<svg id="Vrstva_1" data-name="Vrstva 1" xmlns="http://www.w3.org/2000/svg" viewBox="0 0 26 24"><defs><style>.cls-1{fill:#b0bec5;}</style></defs><title>jic_ico</title><path class="cls-1" d="M2.93,3.38a13.62,13.62,0,0,0,9.73,4.93A5.09,5.09,0,0,1,15.78,2.7a4.34,4.34,0,0,1,4.81,1.23,6.35,6.35,0,0,0,3.11-1.1c.08.85-1.76,2.41-2,2.6a7.86,7.86,0,0,0,2.72-.66,9.49,9.49,0,0,1-2.3,2.33c0,.82.22,10-8.78,13.56A12.56,12.56,0,0,1,1.59,19.41a9.54,9.54,0,0,0,6.75-2A4.71,4.71,0,0,1,4,14.07a4.18,4.18,0,0,0,2,0A5.32,5.32,0,0,1,2.27,9.14a4.89,4.89,0,0,0,2.16.69A5.11,5.11,0,0,1,2.93,3.38Z"/></svg>