<svg id="Vrstva_1" data-name="Vrstva 1" xmlns="http://www.w3.org/2000/svg" viewBox="0 0 130 130"><defs><style>.cls-1{fill:#25a9e0;}.cls-2{fill:#83298f;}.cls-3{fill:#8bc53f;}.cls-4{fill:#f0b32c;}.cls-5{fill:#ec1651;}.cls-6{fill:#f6921e;}.cls-7{fill:#231f20;}</style></defs><title>jic_ico</title><polygon class="cls-1" points="88.58 17.12 86.43 15.96 87.58 13.81 89.72 14.96 88.58 17.12"/><polygon class="cls-2" points="87.45 116.16 85.22 117.14 84.25 114.9 86.48 113.92 87.45 116.16"/><path class="cls-3" d="M109.89,32a1.41,1.41,0,1,1-1.41-1.41A1.41,1.41,0,0,1,109.89,32"/><path class="cls-1" d="M60.42,119.66A1.41,1.41,0,1,1,59,118.24a1.41,1.41,0,0,1,1.41,1.41"/><polygon class="cls-4" points="35.04 16.82 34.98 19.91 37.77 18.26 35.04 16.82"/><polygon class="cls-2" points="63.14 9.46 62.86 9.25 62.75 9.16 62.47 8.96 61.85 9.81 61 9.18 60.8 9.46 60.71 9.58 60.51 9.86 61.35 10.48 60.73 11.33 61.01 11.54 61.13 11.62 61.41 11.83 62.03 10.98 62.87 11.6 63.08 11.32 63.16 11.21 63.37 10.93 62.52 10.3 63.14 9.46"/><polygon class="cls-4" points="104.35 105 104.37 104.65 104.37 104.51 104.38 104.16 103.33 104.13 103.37 103.07 103.02 103.06 102.89 103.06 102.54 103.04 102.5 104.1 101.45 104.06 101.44 104.41 101.43 104.55 101.42 104.9 102.47 104.94 102.43 105.99 102.78 106 102.92 106 103.27 106.02 103.31 104.97 104.35 105"/><path class="cls-5" d="M118.06,82.13a1.41,1.41,0,1,1-1.41-1.41,1.41,1.41,0,0,1,1.41,1.41"/><polygon class="cls-6" points="117.16 57.9 118.76 56.35 120.58 57.62 118.99 59.18 117.16 57.9"/><path class="cls-5" d="M16.92,36.2a2.45,2.45,0,0,0-1.44,3.54,1.14,1.14,0,0,1,.12,1c-.15.37-.38.46-.79.64a2.45,2.45,0,0,0-1.44,3.54,1.14,1.14,0,0,1,.12,1,1,1,0,0,1-.61.56l-.24.1.64,1.29.22-.1a2.33,2.33,0,0,0,1.33-1.32,2.52,2.52,0,0,0-.13-2.12,1.14,1.14,0,0,1-.12-1c.15-.37.38-.46.79-.64a2.45,2.45,0,0,0,1.44-3.54,1.14,1.14,0,0,1-.12-1c.15-.37.38-.46.79-.64l.17-.07.24-.1-.63-1.29Z"/><path class="cls-7" d="M14.67,59.29l-.2,1.87,5.68,1.22L19.87,65l-5.68-1.22L14,65.17l-2.21-.47L12,63.29l-5.2-1.11-.15,1.44-2.21-.47.15-1.44L0,60.73l.27-2.59,4.57,1L5,57.25l-4.57-1,.27-2.59,4.57,1,.16-1.47,2.21.47-.16,1.47,5.2,1.11.16-1.47,2.21.47-.16,1.47,5.68,1.22-.27,2.59Zm-2.41,1.4.2-1.87-5.2-1.11-.2,1.87Z"/><path class="cls-7" d="M24,20.29l.53.49c1.52,1.42,2.06,2.8,1.58,4.29,1.65-.8,3.22-.24,4.78,1.23l1.2,1.13c2.28,2.13,2.38,4.49.22,6.82l-3.41,3.67L14.15,24.08l3.27-3.52C19.67,18.14,21.75,18.15,24,20.29Zm-5.6,3.44,3.91,3.66.85-.91c.81-.87.92-1.75-.26-2.86l-.82-.77c-1.06-1-1.85-1.06-2.62-.24Zm6,5.63L29,33.61l1.24-1.34c.73-.78.76-1.54-.33-2.57L28.6,28.49c-1.37-1.28-2.21-1.24-3.19-.18Z"/><path class="cls-7" d="M52.5,21.85a6.25,6.25,0,0,1-1.06-2.27l-1-3c-.6-1.79-1.42-2.24-2.79-1.78l-1,.35L49.22,23l-3,1L39.77,4.75l4.54-1.53c3.12-1.05,4.95,0,5.94,2.92l.51,1.51c.66,2,.47,3.48-.66,4.57,1.72.12,2.7,1.41,3.37,3.42l1,3a6,6,0,0,0,1.11,2.22ZM43.7,6.48l2,5.91,1.18-.4c1.12-.38,1.64-1.1,1.13-2.64l-.63-1.9C46.88,6.08,46.21,5.63,45.15,6Z"/><path class="cls-7" d="M73.23,6,70.66,20.47,67.85,20,71.4,0l3.92.7,1.09,12.53,2.12-12,2.78.5-3.55,20-3.21-.57Z"/><path class="cls-7" d="M98.86,15.05c2-2.53,4.51-2.9,6.94-.93s2.59,4.48.57,7l-6.59,8.21c-2,2.53-4.51,2.9-6.94.93s-2.59-4.48-.57-7ZM94.61,25.42c-.91,1.13-.76,2,0,2.59s1.63.61,2.53-.52L104,19c.91-1.13.76-2,0-2.59s-1.63-.61-2.53.52Z"/><path class="cls-7" d="M106.93,49.45a6.21,6.21,0,0,1,2.17-1.24L112,47c1.73-.73,2.12-1.59,1.56-2.93l-.43-1-7.58,3.22-1.24-2.94L123,35.41l1.87,4.43c1.28,3,.42,4.95-2.45,6.17l-1.46.62c-1.91.81-3.42.73-4.58-.32,0,1.73-1.2,2.81-3.14,3.63l-2.87,1.22a6,6,0,0,0-2.12,1.28Zm14.6-10-5.72,2.43L116.3,43c.46,1.09,1.22,1.56,2.71.93l1.83-.78c1.33-.56,1.72-1.27,1.28-2.31Z"/><path class="cls-7" d="M121.25,68.94l-.37,4.36L118,73.06l.37-4.36-5.9-.5L112,73.68l-2.88-.24.73-8.66L130,66.48l-.73,8.66-2.88-.24.46-5.49Z"/><path class="cls-7" d="M112,95.55l-2.39,3.76-5.4-3.46c-2.73-1.74-3.42-4.11-1.74-6.75s4.1-3,6.83-1.27l8.86,5.67c2.73,1.74,3.42,4.11,1.74,6.75s-4.1,3-6.83,1.27l-1.66-1.06,1.61-2.54,1.83,1.17c1.22.78,2,.54,2.56-.32s.42-1.69-.8-2.47l-9.2-5.89c-1.22-.78-2-.52-2.54.33s-.45,1.67.77,2.45l3.14,2L109.6,94Z"/><path class="cls-7" d="M101.57,119l-2.66,1.74-11-17L90.57,102Z"/><path class="cls-7" d="M78.24,124.19c.46,3.21-1,5.29-4.05,5.73s-5-1.15-5.49-4.36l-1.49-10.44c-.46-3.21,1-5.29,4.05-5.73s5,1.15,5.49,4.36ZM73.58,114c-.2-1.43-.91-1.89-1.91-1.75s-1.55.78-1.35,2.21l1.55,10.84c.2,1.43.91,1.89,1.91,1.75s1.55-.78,1.35-2.21Z"/><path class="cls-7" d="M46.17,121.78,51.28,108,54,109,46.9,128l-3.73-1.4,1.17-12.52-4.23,11.38-2.65-1,7.06-19,3.06,1.14Z"/></svg>